<svg width="23" height="17" viewBox="0 0 23 17" fill="none" xmlns="http://www.w3.org/2000/svg">
<path d="M13.7685 11.3299C13.55 11.3344 13.3353 11.2956 13.1593 11.2198C12.9833 11.144 12.8562 11.0357 12.7988 10.9125L9.6347 5.3373L7.08298 9.15347C7.01877 9.26619 6.89552 9.36426 6.73067 9.43381C6.56582 9.50336 6.36771 9.54088 6.16436 9.54105C5.96668 9.54397 5.77147 9.51488 5.60033 9.457C5.4292 9.39912 5.28881 9.3147 5.19471 9.2131L3.35747 7.03669L1.77541 8.1398C1.59834 8.25737 1.34921 8.32952 1.08184 8.34068C0.81447 8.35183 0.550318 8.3011 0.346444 8.19943C0.145203 8.09599 0.0216938 7.95045 0.00259589 7.79425C-0.016502 7.63806 0.0703443 7.48374 0.244375 7.36464L2.79609 5.57581C2.89866 5.50098 3.03206 5.44258 3.1838 5.40608C3.33554 5.36958 3.50065 5.35617 3.66368 5.36712C3.83492 5.37935 3.99857 5.41555 4.14073 5.47265C4.28289 5.52975 4.39936 5.60605 4.48023 5.69507L6.01126 7.4839L8.71608 3.36959C8.7884 3.25122 8.92289 3.14923 9.10035 3.07817C9.27781 3.00712 9.48917 2.97064 9.70423 2.97395C9.9193 2.97726 10.1271 3.02018 10.2979 3.09658C10.4687 3.17299 10.5938 3.27897 10.6554 3.3994L13.6664 8.64664L17.3919 0.447832C17.4375 0.324035 17.5527 0.212719 17.7192 0.131658C17.8857 0.0505962 18.0939 0.00446317 18.3106 0.000624155C18.5357 -0.00539717 18.7579 0.0322835 18.9426 0.107788C19.1272 0.183293 19.2639 0.292375 19.3312 0.418018L22.3933 5.78451C22.4488 5.93014 22.4089 6.08265 22.2813 6.21191C22.1538 6.34118 21.9479 6.43782 21.7044 6.48275C21.4608 6.52768 21.1973 6.51764 20.9658 6.4546C20.7343 6.39157 20.5517 6.28013 20.454 6.14228L18.4637 2.68387L14.7381 10.8827C14.6926 11.0065 14.5774 11.1178 14.4109 11.1988C14.2444 11.2799 14.0362 11.326 13.8195 11.3299H13.7685Z" fill="black" fill-opacity="0.22"/>
</svg>
