<svg width="19" height="20" viewBox="0 0 19 20" fill="none" xmlns="http://www.w3.org/2000/svg">
<g clip-path="url(#clip0_1_655)">
<path d="M11.8938 18.3333C12.8859 18.3333 13.7372 18.2784 14.4484 18.112C15.1687 17.9435 15.7931 17.6498 16.2801 17.1371C16.7672 16.6244 17.0462 15.9672 17.2063 15.2089C17.3644 14.4603 17.4165 13.5642 17.4165 12.5199V9.99992C17.4165 9.07942 16.7076 8.33325 15.8332 8.33325H9.49984C8.62536 8.33325 7.9165 9.07942 7.9165 9.99992V16.6666C7.9165 17.5871 8.62536 18.3333 9.49984 18.3333H11.8938Z" fill="black" fill-opacity="0.22"/>
<path d="M1.5835 12.5199C1.5835 13.5642 1.63562 14.4603 1.7937 15.2089C1.95377 15.9672 2.23283 16.6244 2.71988 17.1371C3.20693 17.6498 3.8313 17.9435 4.55157 18.112C4.62055 18.1281 4.68988 18.1433 4.75949 18.1574C5.61806 18.332 6.3335 17.5671 6.3335 16.6466V9.99992C6.3335 9.07942 5.62461 8.33325 4.75016 8.33325H3.16683C2.29238 8.33325 1.5835 9.07942 1.5835 9.99992V12.5199Z" fill="black" fill-opacity="0.22"/>
<path d="M7.10593 1.66675C6.11386 1.66675 5.26262 1.72161 4.55134 1.88801C3.83106 2.05651 3.20669 2.35026 2.71964 2.86294C2.23259 3.37562 1.95354 4.03286 1.79346 4.79104C1.78032 4.8533 1.76795 4.91576 1.75634 4.9784C1.58662 5.89397 2.32658 6.66675 3.21277 6.66675H15.8143C16.6888 6.66675 17.4154 5.91366 17.2496 5.0099C17.2361 4.93662 17.2217 4.86365 17.2064 4.79104C17.0463 4.03286 16.7673 3.37562 16.2802 2.86294C15.7931 2.35026 15.1688 2.05651 14.4485 1.88801C13.7372 1.72161 12.886 1.66675 11.8939 1.66675H7.10593Z" fill="black" fill-opacity="0.22"/>
</g>
<defs>
<clipPath id="clip0_1_655">
<rect width="19" height="20" fill="white"/>
</clipPath>
</defs>
</svg>
