<svg width="19" height="20" viewBox="0 0 19 20" fill="none" xmlns="http://www.w3.org/2000/svg">
<g clip-path="url(#clip0_1_725)">
<path d="M11.8941 18.3333C12.8861 18.3333 13.7374 18.2784 14.4486 18.112C15.169 17.9435 15.7934 17.6498 16.2804 17.1371C16.7674 16.6244 17.0465 15.9672 17.2066 15.2089C17.3647 14.4603 17.4167 13.5642 17.4167 12.5199V9.99992C17.4167 9.07942 16.7079 8.33325 15.8334 8.33325H9.50008C8.62561 8.33325 7.91675 9.07942 7.91675 9.99992V16.6666C7.91675 17.5871 8.62561 18.3333 9.50008 18.3333H11.8941Z" fill="#2C6472"/>
<path d="M1.58325 12.5199C1.58325 13.5642 1.63538 14.4603 1.79346 15.2089C1.95353 15.9672 2.23258 16.6244 2.71963 17.1371C3.20668 17.6498 3.83105 17.9435 4.55133 18.112C4.62031 18.1281 4.68963 18.1433 4.75924 18.1574C5.61781 18.332 6.33325 17.5671 6.33325 16.6466V9.99992C6.33325 9.07942 5.62437 8.33325 4.74992 8.33325H3.16659C2.29213 8.33325 1.58325 9.07942 1.58325 9.99992V12.5199Z" fill="#2C6472"/>
<path d="M7.10593 1.66675C6.11386 1.66675 5.26262 1.72161 4.55134 1.88801C3.83106 2.05651 3.20669 2.35026 2.71964 2.86294C2.23259 3.37562 1.95354 4.03286 1.79346 4.79104C1.78032 4.8533 1.76795 4.91576 1.75634 4.9784C1.58662 5.89397 2.32658 6.66675 3.21277 6.66675H15.8143C16.6888 6.66675 17.4154 5.91366 17.2496 5.0099C17.2361 4.93662 17.2217 4.86365 17.2064 4.79104C17.0463 4.03286 16.7673 3.37562 16.2802 2.86294C15.7931 2.35026 15.1688 2.05651 14.4485 1.88801C13.7372 1.72161 12.886 1.66675 11.8939 1.66675H7.10593Z" fill="#2C6472"/>
</g>
<defs>
<clipPath id="clip0_1_725">
<rect width="19" height="20" fill="white"/>
</clipPath>
</defs>
</svg>
