<svg width="19" height="16" viewBox="0 0 19 16" fill="none" xmlns="http://www.w3.org/2000/svg">
<path d="M9.93835 11.0041C9.82586 11.1077 9.66689 11.1667 9.50017 11.1667C9.33344 11.1667 9.17447 11.1077 9.06198 11.0041L5.8953 8.0874C5.67403 7.8836 5.69084 7.56733 5.93285 7.381C6.17487 7.19467 6.55043 7.2088 6.7717 7.4126L8.90642 9.3788V2C8.90642 1.72386 9.17226 1.5 9.50017 1.5C9.82807 1.5 10.0939 1.72386 10.0939 2V9.3788L12.2286 7.4126C12.4499 7.2088 12.8255 7.19467 13.0675 7.381C13.3095 7.56733 13.3263 7.8836 13.105 8.0874L9.93835 11.0041Z" fill="black"/>
<path d="M2.96875 10C2.96875 9.72387 2.70292 9.5 2.375 9.5C2.04708 9.5 1.78125 9.72387 1.78125 10V10.0366C1.78123 10.9483 1.78122 11.6832 1.8735 12.2612C1.9693 12.8613 2.17426 13.3665 2.65078 13.7677C3.1273 14.1691 3.72728 14.3417 4.43987 14.4223C5.12622 14.5 5.99889 14.5 7.08156 14.5H11.9185C13.0011 14.5 13.8738 14.5 14.5602 14.4223C15.2728 14.3417 15.8727 14.1691 16.3493 13.7677C16.8258 13.3665 17.0307 12.8613 17.1265 12.2612C17.2188 11.6832 17.2188 10.9483 17.2188 10.0366V10C17.2188 9.72387 16.9529 9.5 16.625 9.5C16.2971 9.5 16.0312 9.72387 16.0312 10C16.0312 10.9569 16.03 11.6243 15.9496 12.1279C15.8715 12.6171 15.7287 12.8761 15.5095 13.0607C15.2904 13.2452 14.9828 13.3655 14.4019 13.4313C13.8039 13.4989 13.0114 13.5 11.875 13.5H7.125C5.98863 13.5 5.19608 13.4989 4.5981 13.4313C4.01719 13.3655 3.70957 13.2452 3.49047 13.0607C3.27136 12.8761 3.12851 12.6171 3.05041 12.1279C2.97001 11.6243 2.96875 10.9569 2.96875 10Z" fill="black"/>
</svg>
