<svg width="15" height="14" viewBox="0 0 15 14" fill="none" xmlns="http://www.w3.org/2000/svg">
<path d="M0 11.0837V14H3.12458L12.34 5.39895L9.21542 2.48268L0 11.0837ZM14.7563 3.1437C14.8336 3.07175 14.8949 2.98629 14.9367 2.89222C14.9785 2.79814 15 2.69729 15 2.59544C15 2.49359 14.9785 2.39274 14.9367 2.29866C14.8949 2.20458 14.8336 2.11912 14.7563 2.04718L12.8066 0.227426C12.7295 0.155333 12.6379 0.0981367 12.5372 0.059112C12.4364 0.0200872 12.3283 0 12.2192 0C12.1101 0 12.002 0.0200872 11.9012 0.059112C11.8004 0.0981367 11.7088 0.155333 11.6318 0.227426L10.107 1.65057L13.2315 4.56684L14.7563 3.1437Z" fill="#2C6472"/>
</svg>
