<svg width="11" height="13" viewBox="0 0 11 13" fill="none" xmlns="http://www.w3.org/2000/svg">
<path d="M9.35 0.5H1.65C0.872185 0.5 0.483274 0.5 0.241637 0.7748C6.55651e-08 1.0496 0 1.49188 0 2.37644V2.83632C0 3.52821 -4.91738e-08 3.87415 0.14278 4.16094C0.28556 4.44773 0.546408 4.62571 1.06811 4.98169L2.67027 6.07492C3.0203 6.31372 3.19532 6.43319 3.32063 6.56506C3.58159 6.83966 3.74224 7.16232 3.81504 7.55812C3.85 7.74812 3.85 7.97052 3.85 8.41526V10.1949C3.85 10.8013 3.85 11.1045 3.98856 11.3408C4.12712 11.5772 4.3732 11.6938 4.86541 11.927C5.89864 12.4166 6.41526 12.6614 6.78266 12.3829C7.15 12.1044 7.15 11.4679 7.15 10.1949V8.41526C7.15 7.97052 7.15 7.74812 7.18498 7.55812C7.25774 7.16232 7.4184 6.83966 7.67938 6.56506C7.80467 6.43319 7.97968 6.31372 8.32975 6.07492L9.9319 4.98169C10.4536 4.62571 10.7144 4.44773 10.8572 4.16094C11 3.87415 11 3.52821 11 2.83632V2.37644C11 1.49188 11 1.0496 10.7584 0.7748C10.5167 0.5 10.1278 0.5 9.35 0.5Z" fill="#2C6472"/>
</svg>
