<svg width="15" height="16" viewBox="0 0 15 16" fill="none" xmlns="http://www.w3.org/2000/svg">
<path d="M14.1229 0H0.862035C0.451874 0 0.119385 0.262093 0.119385 0.585374V2.54112C0.119385 2.75665 0.341058 2.93137 0.614511 2.93137H14.3705C14.6439 2.93137 14.8656 2.75665 14.8656 2.54112V0.585374C14.8656 0.262093 14.5331 0 14.1229 0Z" fill="white"/>
<path d="M14.0206 12.5423L10.4788 15.3339C10.1669 15.5797 10.3878 16.0001 10.8288 16.0001H14.1231C14.5332 16.0001 14.8657 15.738 14.8657 15.4147V12.8183C14.8658 12.4706 14.3325 12.2965 14.0206 12.5423Z" fill="white"/>
<path d="M14.3705 3.71191H0.614511C0.341058 3.71191 0.119385 3.88663 0.119385 4.10216V15.4147C0.119385 15.738 0.451914 16.0001 0.862074 16.0001H8.02789C8.1592 16.0001 8.28516 15.959 8.37798 15.8858L14.7206 10.8866C14.8134 10.8135 14.8657 10.7142 14.8657 10.6107V4.10216C14.8656 3.88663 14.644 3.71191 14.3705 3.71191ZM11.1134 10.1104H3.87161C3.59819 10.1104 3.37648 9.93571 3.37648 9.72018C3.37648 9.50468 3.59819 9.32993 3.87161 9.32993H11.1134C11.3868 9.32993 11.6086 9.50468 11.6086 9.72018C11.6086 9.93575 11.3868 10.1104 11.1134 10.1104ZM11.1134 8.00587H3.87161C3.59819 8.00587 3.37648 7.83116 3.37648 7.61562C3.37648 7.40009 3.59819 7.22538 3.87161 7.22538H11.1134C11.3868 7.22538 11.6086 7.40009 11.6086 7.61562C11.6086 7.83116 11.3868 8.00587 11.1134 8.00587ZM11.1134 5.90135H3.87161C3.59819 5.90135 3.37648 5.72663 3.37648 5.5111C3.37648 5.29557 3.59819 5.12085 3.87161 5.12085H11.1134C11.3868 5.12085 11.6086 5.29557 11.6086 5.5111C11.6086 5.72663 11.3868 5.90135 11.1134 5.90135Z" fill="white"/>
</svg>
