<svg width="20" height="19" viewBox="0 0 20 19" fill="none" xmlns="http://www.w3.org/2000/svg">
<path fill-rule="evenodd" clip-rule="evenodd" d="M5.508 2.34265L4.356 4.74995H2.5C2.10218 4.74995 1.72064 4.90008 1.43934 5.16732C1.15804 5.43456 1 5.79702 1 6.17495V7.96285L1.503 8.2013C4.14124 9.45445 7.05037 10.1069 10 10.1069C12.9496 10.1069 15.8588 9.45445 18.497 8.2013L19 7.96285V6.17495C19 5.79702 18.842 5.43456 18.5607 5.16732C18.2794 4.90008 17.8978 4.74995 17.5 4.74995H15.644L14.492 2.34265C14.2934 1.92741 13.9732 1.57526 13.5696 1.32829C13.166 1.08132 12.6961 0.949978 12.216 0.949951H7.784C7.30392 0.949978 6.83399 1.08132 6.43039 1.32829C6.02678 1.57526 5.70656 1.92741 5.508 2.34265ZM7.784 2.84995C7.68804 2.84998 7.59411 2.87623 7.51343 2.92559C7.43275 2.97495 7.36873 3.04532 7.329 3.1283L6.553 4.74995H13.447L12.671 3.1283C12.6313 3.04532 12.5672 2.97495 12.4866 2.92559C12.4059 2.87623 12.312 2.84998 12.216 2.84995H7.784Z" fill="black" fill-opacity="0.22"/>
<path d="M19 10.0823C16.4921 11.213 13.7729 11.8598 11 11.9851V13.2999C11 13.5519 10.8946 13.7935 10.7071 13.9717C10.5196 14.1498 10.2652 14.2499 10 14.2499C9.73478 14.2499 9.48043 14.1498 9.29289 13.9717C9.10536 13.7935 9 13.5519 9 13.2999V11.9851C6.26 11.8607 3.54 11.227 1 10.0823V16.6249C1 17.0029 1.15804 17.3653 1.43934 17.6326C1.72064 17.8998 2.10218 18.0499 2.5 18.0499H17.5C17.8978 18.0499 18.2794 17.8998 18.5607 17.6326C18.842 17.3653 19 17.0029 19 16.6249V10.0823Z" fill="black" fill-opacity="0.22"/>
</svg>
