<svg width="15" height="18" viewBox="0 0 15 18" fill="none" xmlns="http://www.w3.org/2000/svg">
<path d="M14.2445 0H0.755428C0.33821 0 0 0.294855 0 0.658546V2.85876C0 3.10123 0.225487 3.29779 0.503646 3.29779H14.4963C14.7745 3.29779 15 3.10123 15 2.85876V0.658546C14.9999 0.294855 14.6617 0 14.2445 0Z" fill="#2C6472"/>
<path d="M14.1404 14.11L10.5377 17.2505C10.2204 17.527 10.4451 17.9999 10.8938 17.9999H14.2447C14.6619 17.9999 15.0001 17.7051 15.0001 17.3414V14.4204C15.0002 14.0293 14.4577 13.8333 14.1404 14.11Z" fill="#2C6472"/>
<path d="M14.4964 4.17578H0.503646C0.225487 4.17578 0 4.37234 0 4.61481V17.3414C0 17.7051 0.338251 18 0.755468 18H8.04458C8.17815 18 8.30628 17.9537 8.4007 17.8714L14.8525 12.2473C14.9469 12.165 15 12.0533 15 11.9369V4.61481C15 4.37234 14.7745 4.17578 14.4964 4.17578ZM11.1832 11.3741H3.81679C3.53867 11.3741 3.31314 11.1776 3.31314 10.9351C3.31314 10.6926 3.53867 10.4961 3.81679 10.4961H11.1832C11.4613 10.4961 11.6869 10.6926 11.6869 10.9351C11.6869 11.1776 11.4613 11.3741 11.1832 11.3741ZM11.1832 9.00649H3.81679C3.53867 9.00649 3.31314 8.80993 3.31314 8.56746C3.31314 8.32498 3.53867 8.12843 3.81679 8.12843H11.1832C11.4613 8.12843 11.6869 8.32498 11.6869 8.56746C11.6869 8.80993 11.4613 9.00649 11.1832 9.00649ZM11.1832 6.63889H3.81679C3.53867 6.63889 3.31314 6.44234 3.31314 6.19986C3.31314 5.95739 3.53867 5.76083 3.81679 5.76083H11.1832C11.4613 5.76083 11.6869 5.95739 11.6869 6.19986C11.6869 6.44234 11.4613 6.63889 11.1832 6.63889Z" fill="#2C6472"/>
</svg>
