<svg width="15" height="17" viewBox="0 0 15 17" fill="none" xmlns="http://www.w3.org/2000/svg">
<path d="M0.946154 0.00178724C0.410423 0.0621147 0 0.569983 0 1.18331V16.9669C1.11949 17.0747 2.259 16.9193 3.31731 16.4981C4.54729 16.0087 5.64938 15.1859 6.68654 14.302C7.7237 13.4182 8.71576 12.4672 9.80769 11.6693C10.8996 10.8714 12.1118 10.2274 13.4077 10.0447C13.9362 9.97023 14.4754 9.97713 15 10.0768V5.98645H11.1173C10.3223 5.98645 9.62885 5.34101 9.62885 4.48386V0.00178724H1.05577C1.01903 0.00178724 0.981869 -0.00223404 0.946154 0.00178724ZM10.3673 0.00178724V4.48386C10.3673 4.83608 10.6686 5.16452 11.1173 5.16452H15L10.3673 0.00178724Z" fill="white"/>
</svg>
