<svg width="15" height="17" viewBox="0 0 15 17" fill="none" xmlns="http://www.w3.org/2000/svg">
<path d="M2.79492 13.0165H8.58354C8.66684 12.7773 8.77232 12.5481 8.90223 12.333H2.79496L2.79492 13.0165Z" fill="#2C6472"/>
<path d="M2.79492 13.0165H8.58354C8.66684 12.7773 8.77232 12.5481 8.90223 12.333H2.79496L2.79492 13.0165Z" fill="black" fill-opacity="0.2"/>
<path d="M10.0489 9.56396H2.79443V10.2467H10.0489V9.56396Z" fill="#2C6472"/>
<path d="M10.0489 9.56396H2.79443V10.2467H10.0489V9.56396Z" fill="black" fill-opacity="0.2"/>
<path d="M10.0489 6.79517H2.79443V7.47812H10.0489V6.79517Z" fill="#2C6472"/>
<path d="M10.0489 6.79517H2.79443V7.47812H10.0489V6.79517Z" fill="black" fill-opacity="0.2"/>
<path d="M10.0492 4.02686H6.62988V4.70958H10.0492V4.02686Z" fill="#2C6472"/>
<path d="M10.0492 4.02686H6.62988V4.70958H10.0492V4.02686Z" fill="black" fill-opacity="0.2"/>
<path d="M1.47853 15.1995C1.12056 15.1995 0.831227 14.9146 0.831227 14.562V5.50614H4.7884C5.22478 5.50614 5.58032 5.15591 5.58032 4.72368V0.818822H11.3665C11.722 0.818822 12.0137 1.10367 12.0137 1.45626V10.4857C12.0701 10.4807 12.1241 10.4807 12.1805 10.4807C12.4085 10.4807 12.6292 10.5001 12.8449 10.5388V1.45626C12.8449 0.652076 12.1805 0 11.3665 0H5.367C4.93555 0 4.52108 0.166746 4.21711 0.468629L0.475651 4.15364C0.169158 4.45317 0 4.8614 0 5.28637V14.562C0 15.3662 0.662035 16.018 1.4785 16.018H8.84603C8.70381 15.7621 8.59105 15.4869 8.5126 15.1995H1.47853ZM4.84227 1.01196V4.28642C4.84227 4.63924 4.70258 4.77673 4.34211 4.77673H1.01761L4.84227 1.01196Z" fill="#2C6472"/>
<path d="M1.47853 15.1995C1.12056 15.1995 0.831227 14.9146 0.831227 14.562V5.50614H4.7884C5.22478 5.50614 5.58032 5.15591 5.58032 4.72368V0.818822H11.3665C11.722 0.818822 12.0137 1.10367 12.0137 1.45626V10.4857C12.0701 10.4807 12.1241 10.4807 12.1805 10.4807C12.4085 10.4807 12.6292 10.5001 12.8449 10.5388V1.45626C12.8449 0.652076 12.1805 0 11.3665 0H5.367C4.93555 0 4.52108 0.166746 4.21711 0.468629L0.475651 4.15364C0.169158 4.45317 0 4.8614 0 5.28637V14.562C0 15.3662 0.662035 16.018 1.4785 16.018H8.84603C8.70381 15.7621 8.59105 15.4869 8.5126 15.1995H1.47853ZM4.84227 1.01196V4.28642C4.84227 4.63924 4.70258 4.77673 4.34211 4.77673H1.01761L4.84227 1.01196Z" fill="black" fill-opacity="0.2"/>
<path d="M12.1804 11.4458C10.6233 11.4458 9.36084 12.6891 9.36084 14.2229C9.36084 15.7568 10.6232 17.0001 12.1804 17.0001C13.7375 17.0001 14.9999 15.7568 14.9999 14.2229C15 12.6891 13.7375 11.4458 12.1804 11.4458ZM14.002 13.3169L12.4967 15.1148C12.4014 15.2332 12.2606 15.3075 12.1079 15.3202C11.955 15.333 11.8035 15.283 11.6895 15.1818L10.7748 14.3722C10.706 14.3113 10.6647 14.2262 10.66 14.1352C10.6552 14.0444 10.6876 13.9553 10.7496 13.8878L10.8726 13.7541C10.9349 13.6866 11.0218 13.6463 11.1143 13.6421C11.2069 13.6381 11.2973 13.6704 11.3654 13.7322L12.1293 14.4244L13.6793 13.0141C13.7664 12.9389 13.8972 12.9412 13.981 13.0205C14.0648 13.099 14.0738 13.228 14.002 13.3169Z" fill="#2C6472"/>
<path d="M12.1804 11.4458C10.6233 11.4458 9.36084 12.6891 9.36084 14.2229C9.36084 15.7568 10.6232 17.0001 12.1804 17.0001C13.7375 17.0001 14.9999 15.7568 14.9999 14.2229C15 12.6891 13.7375 11.4458 12.1804 11.4458ZM14.002 13.3169L12.4967 15.1148C12.4014 15.2332 12.2606 15.3075 12.1079 15.3202C11.955 15.333 11.8035 15.283 11.6895 15.1818L10.7748 14.3722C10.706 14.3113 10.6647 14.2262 10.66 14.1352C10.6552 14.0444 10.6876 13.9553 10.7496 13.8878L10.8726 13.7541C10.9349 13.6866 11.0218 13.6463 11.1143 13.6421C11.2069 13.6381 11.2973 13.6704 11.3654 13.7322L12.1293 14.4244L13.6793 13.0141C13.7664 12.9389 13.8972 12.9412 13.981 13.0205C14.0648 13.099 14.0738 13.228 14.002 13.3169Z" fill="black" fill-opacity="0.2"/>
</svg>
